<?xml version="1.0" encoding="UTF-8" standalone="no"?>
<!-- Created with Inkscape (http://www.inkscape.org/) -->
<svg id="svg2" xmlns:rdf="http://www.w3.org/1999/02/22-rdf-syntax-ns#" xmlns="http://www.w3.org/2000/svg" xmlns:osb="http://www.openswatchbook.org/uri/2009/osb" height="976.94" width="2190.4" version="1.1" xmlns:cc="http://creativecommons.org/ns#" xmlns:xlink="http://www.w3.org/1999/xlink" xmlns:dc="http://purl.org/dc/elements/1.1/">
 <metadata id="metadata7">
  <rdf:RDF>
   <cc:Work rdf:about="">
    <dc:format>image/svg+xml</dc:format>
    <dc:type rdf:resource="http://purl.org/dc/dcmitype/StillImage"/>
    <dc:title/>
   </cc:Work>
  </rdf:RDF>
 </metadata>
 <g id="layer1" transform="translate(676.4 -43.893)">
  <g id="layer1-948" transform="translate(387.14 -80)">
   <g id="layer1-94" transform="translate(408.65 274.29)">
    <g id="g3407" transform="translate(-1864 -150.4)">
     <g id="layer14" transform="translate(282.25 1208.1)">
      <g id="g4627" fill="#ebebf2" transform="translate(-984.29 1312.4)">
       <g id="g4680" transform="matrix(.99231 0 0 1 319.75 622.25)" fill="#ebebf2">
        <rect id="rect4416-5" style="color:#000000" height="152.22" width="51.942" y="-2327.8" x="780.22"/>
        <rect id="rect4416-5-5" style="color:#000000" height="191.14" width="51.942" y="-2365.1" x="820.74"/>
        <rect id="rect4416-5-1" style="color:#000000" height="275.31" width="157.48" y="-2447.7" x="866.74"/>
        <rect id="rect4416-5-5-7" style="color:#000000" height="246.84" width="63.643" y="-2422.2" x="1021.9"/>
        <rect id="rect4416-5-5-1" style="color:#000000" height="222.85" width="69.652" y="-2393.2" x="1084.9"/>
        <rect id="rect4416-5-5-15" style="color:#000000" height="235.44" width="117.44" y="-2411" x="1152.1"/>
        <rect id="rect4416-5-5-2" style="color:#000000" height="306.65" width="321.45" y="-2483.1" x="1262"/>
        <rect id="rect4416-5-5-76" style="color:#000000" height="49.941" width="110.33" y="-2533.4" x="1368.7"/>
        <rect id="rect4416-5-5-14" style="color:#000000" height="191.14" width="81.406" y="-2499.4" x="1502.7"/>
        <rect id="rect4416-5-5-14-2" style="color:#000000" height="191.14" width="81.406" y="-2443" x="1573.6"/>
        <rect id="rect4416-5-5-14-3" style="color:#000000" height="191.14" width="123.09" y="-2409" x="1628.8"/>
        <rect id="rect4416-5-5-14-22" style="color:#000000" height="191.14" width="568.62" y="-2365.2" x="1531"/>
        <rect id="rect4553" style="color:#000000" height="26.5" width="17.5" y="-2383.8" x="1807.2"/>
        <rect id="rect4555" style="color:#000000" height="40" width="41" y="-2391.3" x="1817.7"/>
        <rect id="rect4557" style="color:#000000" height="40.5" width="45.5" y="-2401.3" x="1824.7"/>
        <rect id="rect4559" style="color:#000000" height="31" width="74.5" y="-2390.3" x="1856.7"/>
        <rect id="rect4561" style="color:#000000" height="26" width="52" y="-2381.8" x="1919.7"/>
        <rect id="rect4563" style="color:#000000" height="79.5" width="152.5" y="-2426.3" x="1946.2"/>
        <rect id="rect4565" style="color:#000000" height="20" width="39" y="-2359.8" x="2093.7"/>
        <rect id="rect4567" style="color:#000000" height="18.5" width="56.5" y="-2349.3" x="2081.2"/>
        <rect id="rect4569" style="color:#000000" height="165.5" width="221" y="-2337.3" x="2015.2"/>
        <rect id="rect4571" style="color:#000000" height="176.78" width="269.41" y="-2358.7" x="2216.8"/>
        <rect id="rect4579" style="color:#000000" height="197.28" width="113.84" y="-2373.6" x="2428.2"/>
        <rect id="rect4581" style="color:#000000" height="183.14" width="156.27" y="-2356.6" x="2513.8"/>
        <rect id="rect4625" style="color:#000000" height="136.18" width="1969.5" y="-2304" x="780.09"/>
       </g>
      </g>
      <g id="g4229" transform="matrix(1 0 0 .99659 -1944.3 752.79)">
       <rect id="rect4187" style="color:#000000" ry="0" height="417.41" width="152.74" y="-1407.9" x="2142.3" fill="#ebebf2"/>
       <rect id="rect4189" style="color:#000000" height="33.234" width="21.567" y="-1356.8" x="2254" fill="#b4d1d9"/>
       <rect id="rect4189-1" style="color:#000000" height="33.234" width="21.567" y="-1237.6" x="2254" fill="#b4d1d9"/>
       <rect id="rect4189-7" style="color:#000000" height="33.234" width="21.567" y="-1174.1" x="2254" fill="#b4d1d9"/>
       <rect id="rect4189-4" style="color:#000000" height="33.234" width="21.567" y="-1105.1" x="2254" fill="#b4d1d9"/>
       <path id="path4223" d="m2295.9-1033.8c11.685-4.5038 15.317-4.6856 21.816-4.3214 7.4997 1.4866 15.843 1.8121 16.102 25.336 12.202 0.6743 24.524 0.3838 36.416 3.5356 11.046 6.68 11.627 13.289 13.082 19.269h-89.979z" fill="#ebebf2"/>
       <path id="path4225" d="m2143.6-989.47h-71.375c3.1968-7.5036 8.7457-14.177 19.924-18.863 18.839-3.4162 33.658-2.8121 49.937-3.6679z" fill="#ebebf2"/>
       <path id="path4227" d="m2141.5-1404.8-12.449-5.2019 41.199-32.548v-61l14.5-11.25v-103.5h19v28.25l13.75-15.5 15.75 17v22.25h8.75v50.75l22.742 13.13v62.37l40.946 30.375-9.9375 5.125z" fill="#ebebf2"/>
      </g>
      <path id="path4239" d="m683.2-235.07h74.246l-40.128-588.49z" fill="#ebebf2"/>
      <g id="g4269" transform="matrix(1.3902 0 0 1.3902 -664.67 1273.3)" fill="#ebebf2">
       <rect id="rect4241" style="color:#000000" height="66.468" width="173.95" y="-1213.2" x="1452.4"/>
       <rect id="rect4243" style="color:#000000" height="370.52" width="35.355" y="-1454.7" x="1480"/>
       <rect id="rect4243-0" style="color:#000000" height="370.52" width="35.355" y="-1454.7" x="1562.7"/>
       <rect id="rect4265" style="color:#000000" height="72.125" width="100.41" y="-1414.7" x="1493.4"/>
       <rect id="rect4267" style="color:#000000" height="9.1924" width="75.66" y="-1310.1" x="1503.3"/>
      </g>
      <g id="g4355" fill="#ebebf2" transform="matrix(2.4529 0 0 2.4529 -1123.4 4425.1)">
       <g id="g4402" transform="translate(-1388.1 -33.43)">
        <g id="g4843" transform="translate(-84.176)">
         <path id="path4300" d="m2203.5-2068c0 5.0396-4.0854 9.125-9.125 9.125s-9.125-4.0854-9.125-9.125 4.0854-9.125 9.125-9.125 9.125 4.0854 9.125 9.125z" transform="matrix(1.1096 0 0 -1.1096 -248.35 -4369)" fill="#b4d1d9"/>
         <path id="path4300-9" d="m2203.5-2068c0 5.0396-4.0854 9.125-9.125 9.125s-9.125-4.0854-9.125-9.125 4.0854-9.125 9.125-9.125 9.125 4.0854 9.125 9.125z" transform="matrix(1.1096 0 0 -1.1096 -212.1 -4405.6)" fill="#b4d1d9"/>
         <path id="path4300-4" d="m2203.5-2068c0 5.0396-4.0854 9.125-9.125 9.125s-9.125-4.0854-9.125-9.125 4.0854-9.125 9.125-9.125 9.125 4.0854 9.125 9.125z" transform="matrix(1.1096 0 0 -1.1096 -138.98 -4405.9)" fill="#b4d1d9"/>
         <path id="path4300-8" d="m2203.5-2068c0 5.0396-4.0854 9.125-9.125 9.125s-9.125-4.0854-9.125-9.125 4.0854-9.125 9.125-9.125 9.125 4.0854 9.125 9.125z" transform="matrix(1.1096 0 0 -1.1096 -102.48 -4369.1)" fill="#b4d1d9"/>
         <path id="path4300-82" d="m2203.5-2068c0 5.0396-4.0854 9.125-9.125 9.125s-9.125-4.0854-9.125-9.125 4.0854-9.125 9.125-9.125 9.125 4.0854 9.125 9.125z" transform="matrix(1.1096 0 0 -1.1096 -175.35 -4327.4)" fill="#b4d1d9"/>
         <path id="path4341" d="m2186.5-2072c-15.134 53.572-18.715 108.86-21.339 164.28h42.25c-2.3596-54.314-4.3268-108.59-20.911-164.28z" fill="#ebebf2"/>
         <path id="path4343" d="m2223.3-2108.6c-8.9315 43.225-15.861 86.449-19.614 129.67l-11.148 71.196h55.866c-0.8917-20.456-2.6387-38.702-4.6583-59.233-4.5553-46.306-11.52-95.04-20.446-141.64z" fill="#ebebf2"/>
         <path id="path4345" d="m2259.9-2031c-9.7772 43.201-18.001 82.906-26.51 123.25h48.956c-6.3653-41.244-13.748-82.343-22.446-123.25z" fill="#ebebf2"/>
         <path id="path4347" d="m2295.8-2110.5c-12.09 67.574-23.142 135.15-22.206 202.73l48.529 0.4779c-4.0634-66.744-13.308-134.58-26.323-203.21z" fill="#ebebf2"/>
         <path id="path4349" d="m2333.2-2072.5c-17.27 52.412-18.26 109.02-21.522 165.05l42.022 0.6052c-2.2223-42.458 0.8591-70.238-20.5-165.66z" fill="#ebebf2"/>
         <path id="path4351" d="m2240.3-1999.8c3.8372-2.1857 8.3313-3.7802 13.347-4.9055l-2.4307 11.932c-3.8247 0.3351-7.0735 1.822-10.076 3.8007z" fill="#ebebf2"/>
         <path id="path4353" d="m2265.4-2004.8c5.2343 1.1312 9.4769 2.9235 13.302 4.9939l-1.1049 11.137c-2.3639-1.4142-3.1287-2.8285-10.12-4.2427z" fill="#ebebf2"/>
        </g>
       </g>
       <g id="g4397" transform="matrix(.32266 0 0 .32266 868.24 -1115.1)">
        <path id="path4380" d="m243.86-2430.3h1390.6c-125.32-10.564-250.89-21.914-416.56-162.01l5.7655-191.7c-104.28-35.789-210.89-59.309-330.22-15.567l-3.0269 19.891-69.042 36.755 2.9912-13.888-9.4773-2.8322c-374.92 165.45-470.26 209.21-454.85 204.76l-1.1959 12.89-26.81 11.675 0.72069-10.09-3.6034-0.1442-65.582 30.99z" fill="#ebebf2"/>
        <path id="path4382" d="m493.56-2371.5c26.931-3.456 68.263-18.301 114.41-35.591 1044-391.15 1389.6-370.66 1391.8-371.08 273.09 29.688 421.64 82.156 620.61 130.52" transform="matrix(.40768 0 0 .40768 150.12 -1523.8)" stroke="#b4d1d9" stroke-width="8" fill="none"/>
        <path id="path4384" d="m485.08-2317.7c48.574-5.8847 68.931-2.5911 169.71-25.456 182.69-43.476 365-85.956 543.06-117.38 515.48-80.34 737.76-21.807 997.73 13.435 215.94 42.124 323.54 59.126 410.83 71.418" transform="matrix(.40768 0 0 .40768 150.12 -1523.8)" stroke="#b4d1d9" stroke-width="8" fill="none"/>
       </g>
      </g>
     </g>
     <g id="layer4" display="none" transform="translate(282.25 1208.1)">
      <image id="image3677" display="inline" xlink:href="file:///C:/Users/Mariolinha/Desktop/Flat-illustration-of-iMac-For-Mockup-Wireframes.png" height="600" width="800" y="-722.67" x="1179.9"/>
     </g>
    </g>
   </g>
  </g>
 </g>
 <style id="style2987">.st0{fill:#3A3A59;}
        .st1{fill:#169CEE;}
        .st2{fill:#0E69A1;}
        .st3{fill:#F15732;}
        .st4{opacity:0.3;fill:#FFFFFF;enable-background:new;}
        .st5{fill:#555574;}
        .st6{fill:none;stroke:#0E69A1;stroke-width:8;stroke-linecap:round;stroke-miterlimit:10;}
        .st7{fill:#EF3F61;}
        .st8{fill:#4BBC6E;}
        .st9{fill:none;stroke:#3A3A59;stroke-width:16;stroke-linecap:round;stroke-miterlimit:10;}
        .st10{fill:none;stroke:#0E69A1;stroke-width:8;stroke-miterlimit:10;}
        .st11{fill:#159CEE;}</style>
 <style id="style3248">.st0{fill:#169CEE;}
        .st1{fill:#0E69A1;}
        .st2{fill:#555574;}
        .st3{fill:#3A3A59;}
        .st4{fill:#EF3F61;}
        .st5{fill:none;stroke:#3A3A59;stroke-width:8;stroke-miterlimit:10;}
        .st6{fill:none;stroke:#0E69A1;stroke-width:8;stroke-linejoin:round;stroke-miterlimit:10;}
        .st7{fill:none;stroke:#0E69A1;stroke-width:8;stroke-miterlimit:10;}
        .st8{fill:none;stroke:#3A3A59;stroke-width:12;stroke-miterlimit:10;}
        .st9{fill:none;stroke:#3A3A59;stroke-width:12;stroke-linecap:round;stroke-linejoin:round;stroke-miterlimit:10;}
        .st10{fill:#4BBC6E;}
        .st11{opacity:0.3;fill:#FFFFFF;enable-background:new;}
        .st12{fill:none;stroke:#0E69A1;stroke-width:8;stroke-linecap:round;stroke-miterlimit:10;}
        .st13{fill:#DB3B61;}
        .st14{fill:#FFFFFF;}
        .st16{fill:none;stroke:#169CEE;stroke-width:8;stroke-miterlimit:10;}
        .st17{fill:#464661;stroke:#3A3A59;stroke-width:8;stroke-miterlimit:10;}</style>
 <style id="style3439">.st0{fill:none;stroke:#3A3A59;stroke-width:12;stroke-miterlimit:10;}
        .st1{fill:#3A3A59;}
        .st2{fill:#0E69A1;}
        .st3{fill:#169CEE;}
        .st4{fill:#F15732;}
        .st5{fill:#FFFFFF;}
        .st6{fill:#555574;}
        .st7{fill:#4BBC6E;}
        .st8{fill:#EF3F61;}
        .st9{fill:none;stroke:#3A3A59;stroke-width:16;stroke-linecap:round;stroke-miterlimit:10;}
        .st10{fill:none;stroke:#0E69A1;stroke-width:8;stroke-miterlimit:10;}
        .st11{fill:#159CEE;}
        .st13{fill:none;stroke:#169CEE;stroke-width:8;stroke-miterlimit:10;}
        .st14{fill:none;stroke:#3A3A59;stroke-width:8;stroke-linecap:round;stroke-linejoin:round;stroke-miterlimit:10;}
        .st15{fill:none;stroke:#3A3A59;stroke-width:8;stroke-linecap:round;stroke-miterlimit:10;}
        .st16{opacity:0.3;fill:#FFFFFF;enable-background:new;}
        .st17{fill:none;stroke:#0E69A1;stroke-width:8;stroke-linecap:round;stroke-miterlimit:10;}
        .st18{fill:none;stroke:#3A3A59;stroke-width:8;stroke-miterlimit:10;}
        .st19{fill: #4BBC6E;}</style>
 <style id="style3549">.st0{fill:none;stroke:#3A3A59;stroke-width:12;stroke-miterlimit:10;}
        .st1{fill:#3A3A59;}
        .st2{fill:#0E69A1;}
        .st3{fill:#169CEE;}
        .st4{fill:#F15732;}
        .st5{fill:#FFFFFF;}
        .st6{fill:#555574;}
        .st7{fill:#4BBC6E;}
        .st8{fill:#EF3F61;}
        .st9{fill:none;stroke:#3A3A59;stroke-width:16;stroke-linecap:round;stroke-miterlimit:10;}
        .st10{fill:none;stroke:#0E69A1;stroke-width:8;stroke-miterlimit:10;}
        .st11{fill:#159CEE;}
        .st13{fill:none;stroke:#169CEE;stroke-width:8;stroke-miterlimit:10;}
        .st14{fill:none;stroke:#3A3A59;stroke-width:8;stroke-linecap:round;stroke-linejoin:round;stroke-miterlimit:10;}
        .st15{fill:none;stroke:#3A3A59;stroke-width:8;stroke-linecap:round;stroke-miterlimit:10;}
        .st16{opacity:0.3;fill:#FFFFFF;enable-background:new;}
        .st17{fill:none;stroke:#0E69A1;stroke-width:8;stroke-linecap:round;stroke-miterlimit:10;}
        .st18{fill:none;stroke:#3A3A59;stroke-width:8;stroke-miterlimit:10;}
        .st19{fill: #4BBC6E;}</style>
 <style id="style4164" type="text/css">.st0{fill:#ebebf2;}</style>
</svg>
