<?xml version="1.0" encoding="UTF-8" standalone="no"?>
<!-- Created with Inkscape (http://www.inkscape.org/) -->

<svg
   xmlns:dc="http://purl.org/dc/elements/1.1/"
   xmlns:cc="http://creativecommons.org/ns#"
   xmlns:rdf="http://www.w3.org/1999/02/22-rdf-syntax-ns#"
   xmlns:svg="http://www.w3.org/2000/svg"
   xmlns="http://www.w3.org/2000/svg"
   xmlns:sodipodi="http://sodipodi.sourceforge.net/DTD/sodipodi-0.dtd"
   xmlns:inkscape="http://www.inkscape.org/namespaces/inkscape"
   width="1123.0807"
   height="133.03549"
   id="svg2"
   version="1.1"
   inkscape:version="0.48.5 r10040"
   sodipodi:docname="iconos.svg">
  <defs
     id="defs4" />
  <sodipodi:namedview
     id="base"
     pagecolor="#ffffff"
     bordercolor="#666666"
     borderopacity="1.0"
     inkscape:pageopacity="0.0"
     inkscape:pageshadow="2"
     inkscape:zoom="0.70710678"
     inkscape:cx="380.68663"
     inkscape:cy="199.26004"
     inkscape:document-units="px"
     inkscape:current-layer="layer2"
     showgrid="false"
     inkscape:window-width="1704"
     inkscape:window-height="1361"
     inkscape:window-x="0"
     inkscape:window-y="0"
     inkscape:window-maximized="0"
     fit-margin-top="0"
     fit-margin-left="0"
     fit-margin-right="0"
     fit-margin-bottom="0"
     showborder="false" />
  <metadata
     id="metadata7">
    <rdf:RDF>
      <cc:Work
         rdf:about="">
        <dc:format>image/svg+xml</dc:format>
        <dc:type
           rdf:resource="http://purl.org/dc/dcmitype/StillImage" />
        <dc:title />
      </cc:Work>
    </rdf:RDF>
  </metadata>
  <g
     inkscape:groupmode="layer"
     id="layer2"
     inkscape:label="Iconos"
     transform="translate(227.20155,312.98425)">
    <g
       id="g3766"
       transform="translate(102.53048,-538.38249)">
      <path
         transform="matrix(1.1787955,0,0,1.1787955,11.69766,-258.16645)"
         d="m -176.78571,466.64789 c 0,31.16464 -25.26393,56.42857 -56.42857,56.42857 -31.16464,0 -56.42857,-25.26393 -56.42857,-56.42857 0,-31.16464 25.26393,-56.42857 56.42857,-56.42857 31.16464,0 56.42857,25.26393 56.42857,56.42857 z"
         sodipodi:ry="56.42857"
         sodipodi:rx="56.42857"
         sodipodi:cy="466.64789"
         sodipodi:cx="-233.21428"
         id="path2986"
         style="fill:#556080;fill-opacity:1;fill-rule:evenodd;stroke:none"
         sodipodi:type="arc" />
      <path
         transform="matrix(1.5816994,0,0,1.5816994,264.90197,-328.87676)"
         d="m -305.89287,401.29074 c 0,15.08921 -12.23222,27.32143 -27.32142,27.32143 -15.08921,0 -27.32143,-12.23222 -27.32143,-27.32143 0,-15.08921 12.23222,-27.32143 27.32143,-27.32143 15.0892,0 27.32142,12.23222 27.32142,27.32143 z"
         sodipodi:ry="27.321428"
         sodipodi:rx="27.321428"
         sodipodi:cy="401.29074"
         sodipodi:cx="-333.21429"
         id="path3760"
         style="fill:#fbd971;fill-opacity:1;stroke:none"
         sodipodi:type="arc" />
      <path
         sodipodi:nodetypes="cccccccccc"
         inkscape:connector-curvature="0"
         id="path3762"
         d="m -326.21614,286.98222 c -3.4347,-21.63922 7.41453,-27.20664 18.11961,-31.75667 4.62814,-1.4736 16.88924,-3.02769 30.93592,-0.3788 9.67874,2.81151 18.53492,1.92147 27.27412,0.50507 11.48245,-1.80727 21.89159,-1.25529 31.69354,0.63135 8.07135,3.27848 15.94718,6.96893 18.81409,21.2132 l -0.50508,11.86929 c -1.51184,4.92768 -4.42281,8.54102 -8.71256,10.85914 l -105.3084,0 c -6.34224,-2.41487 -11.48285,-5.84929 -12.31124,-12.94258 z"
         style="fill:#464f5d;fill-opacity:1;stroke:none" />
      <rect
         ry="6.4285717"
         y="272.38538"
         x="-310.51407"
         height="12.857143"
         width="94.553566"
         id="rect3756"
         style="fill:#e16080;fill-opacity:1;stroke:none" />
      <rect
         ry="3.4821429"
         y="320.64761"
         x="-282.4884"
         height="6.9642859"
         width="38.596813"
         id="rect3764"
         style="fill:#f29c1f;fill-opacity:1;stroke:none" />
    </g>
    <g
       id="g3783"
       transform="matrix(0.73516575,0,0,0.73516575,63.683525,-420.59838)">
      <rect
         ry="11.765076"
         y="146.78024"
         x="-153.21962"
         height="121.71284"
         width="193.62573"
         id="rect3773"
         style="fill:#424a60;fill-opacity:1;stroke:none" />
      <rect
         ry="10"
         y="266.29077"
         x="-153.21428"
         height="20"
         width="193.61411"
         id="rect3775"
         style="fill:#e8edee;fill-opacity:1;stroke:none" />
      <rect
         ry="0"
         y="259.05032"
         x="-153.21605"
         height="17.142857"
         width="193.62254"
         id="rect3777"
         style="fill:#e8edee;fill-opacity:1;stroke:none" />
      <rect
         y="285.93362"
         x="-73.39286"
         height="27.5"
         width="33.57143"
         id="rect3779"
         style="fill:#b0b6bb;fill-opacity:1;stroke:none" />
      <rect
         ry="7.3214288"
         y="312.36221"
         x="-96.515228"
         height="14.642858"
         width="80.400475"
         id="rect3781"
         style="fill:#e8edee;fill-opacity:1;stroke:none" />
    </g>
    <g
       id="g3834"
       transform="matrix(0.79201926,0,0,0.79201926,65.891308,-396.48339)">
      <rect
         ry="8.7756996"
         y="105.79875"
         x="95.623566"
         height="17.551399"
         width="91.919792"
         id="rect3790"
         style="fill:#545e73;fill-opacity:1;stroke:none" />
      <rect
         ry="8.7756996"
         y="255.69078"
         x="95.569374"
         height="17.551399"
         width="92.050156"
         id="rect3790-1"
         style="fill:#545e73;fill-opacity:1;stroke:none" />
      <rect
         ry="0"
         y="238.92595"
         x="95.637993"
         height="26.287489"
         width="91.950951"
         id="rect3810"
         style="fill:#545e73;fill-opacity:1;stroke:none" />
      <rect
         ry="0"
         y="114.08513"
         x="95.63707"
         height="9.8489876"
         width="91.949829"
         id="rect3810-7"
         style="fill:#545e73;fill-opacity:1;stroke:none" />
      <path
         transform="matrix(1.355213,0,0,1.4377341,-55.631113,-479.83339)"
         d="m 152.02796,511.48862 c 0,3.10327 -2.71357,5.61897 -6.06092,5.61897 -3.34735,0 -6.06091,-2.5157 -6.06091,-5.61897 0,-3.10328 2.71356,-5.61898 6.06091,-5.61898 3.34735,0 6.06092,2.5157 6.06092,5.61898 z"
         sodipodi:ry="5.6189737"
         sodipodi:rx="6.0609155"
         sodipodi:cy="511.48862"
         sodipodi:cx="145.96704"
         id="path3830"
         style="fill:#464f5d;fill-opacity:1;stroke:none;stroke-opacity:1"
         sodipodi:type="arc" />
      <rect
         ry="0"
         y="123.93495"
         x="95.6418"
         height="114.99941"
         width="91.947334"
         id="rect3832"
         style="fill:#7383bf;fill-opacity:1;stroke:none" />
    </g>
    <g
       id="g3852"
       transform="translate(-5.6568542,-69.296464)">
      <g
         id="g3986"
         transform="matrix(0.9146964,0,0,0.9146964,37.307148,-403.5792)">
        <rect
           style="fill:#57abc1;fill-opacity:1;stroke:none"
           id="rect3842"
           width="186.67621"
           height="132.22897"
           x="250.66934"
           y="187.74751"
           ry="9.5459414" />
        <rect
           style="fill:#226bac;fill-opacity:1;stroke:none"
           id="rect3844"
           width="63.125"
           height="12.875"
           x="313.75"
           y="174.9138"
           ry="0" />
        <path
           sodipodi:type="arc"
           style="fill:#7383bf;fill-opacity:1;stroke:#424a60;stroke-width:4.81411791;stroke-miterlimit:4;stroke-opacity:1;stroke-dasharray:none"
           id="path3846"
           sodipodi:cx="380.125"
           sodipodi:cy="492.23718"
           sodipodi:rx="42.625"
           sodipodi:ry="42.625"
           d="m 422.75,492.23718 c 0,23.54114 -19.08386,42.625 -42.625,42.625 -23.54114,0 -42.625,-19.08386 -42.625,-42.625 0,-23.54113 19.08386,-42.625 42.625,-42.625 23.54114,0 42.625,19.08387 42.625,42.625 z"
           transform="matrix(1.2046973,0,0,1.2046973,-111.18556,-339.20801)" />
        <path
           sodipodi:type="arc"
           style="fill:#bbcdf6;fill-opacity:1;stroke:none"
           id="path3850"
           sodipodi:cx="332.625"
           sodipodi:cy="443.48718"
           sodipodi:rx="6.625"
           sodipodi:ry="6.625"
           d="m 339.25,443.48718 c 0,3.65889 -2.96611,6.625 -6.625,6.625 -3.65889,0 -6.625,-2.96611 -6.625,-6.625 0,-3.65888 2.96611,-6.625 6.625,-6.625 3.65889,0 6.625,2.96612 6.625,6.625 z"
           transform="translate(-1.5,-206.07338)" />
      </g>
      <g
         id="g3962">
        <g
           id="g3974"
           transform="matrix(0.79172477,0,0,0.79172477,99.403878,-370.20196)">
          <rect
             style="fill:#324d5b;fill-opacity:1;stroke:none"
             id="rect3946"
             width="243.19553"
             height="167.4467"
             x="490.40317"
             y="159.97856"
             ry="10.069178" />
          <rect
             style="fill:#2b414d;fill-opacity:1;stroke:none"
             id="rect3948"
             width="231.875"
             height="140.375"
             x="490.39798"
             y="173.17252"
             ry="0" />
          <rect
             style="fill:#324d5b;fill-opacity:1;stroke:none"
             id="rect3950"
             width="41.603291"
             height="134.09314"
             x="490.40619"
             y="176.4826" />
          <path
             style="fill:#2b414d;fill-opacity:1;stroke:#839097;stroke-width:5;stroke-linecap:round;stroke-linejoin:miter;stroke-miterlimit:4;stroke-opacity:1;stroke-dasharray:none"
             d="m 547.34435,195.53365 0,-7.5 7,0"
             id="path3952"
             inkscape:connector-curvature="0" />
          <path
             style="fill:none;stroke:#839097;stroke-width:5;stroke-linecap:round;stroke-linejoin:miter;stroke-miterlimit:4;stroke-opacity:1;stroke-dasharray:none"
             d="m 699.90685,188.1899 7.53125,0 0,7.875"
             id="path3954"
             inkscape:connector-curvature="0" />
          <path
             style="fill:none;stroke:#839097;stroke-width:5;stroke-linecap:round;stroke-linejoin:miter;stroke-miterlimit:4;stroke-opacity:1;stroke-dasharray:none"
             d="m 547.15685,291.22115 0,7.75 6.9375,0"
             id="path3956"
             inkscape:connector-curvature="0" />
          <path
             style="fill:none;stroke:#839097;stroke-width:5;stroke-linecap:round;stroke-linejoin:miter;stroke-miterlimit:4;stroke-opacity:1;stroke-dasharray:none"
             d="m 707.28355,291.21067 0,7.46881 -7.20365,0"
             id="path3958"
             inkscape:connector-curvature="0" />
          <path
             sodipodi:type="arc"
             style="fill:none;stroke:#839097;stroke-width:6;stroke-miterlimit:4;stroke-opacity:1;stroke-dasharray:none"
             id="path3960"
             sodipodi:cx="512.34308"
             sodipodi:cy="443.94098"
             sodipodi:rx="8.5294752"
             sodipodi:ry="8.5294752"
             d="m 520.87255,443.94098 c 0,4.7107 -3.81877,8.52947 -8.52947,8.52947 -4.7107,0 -8.52948,-3.81877 -8.52948,-8.52947 0,-4.7107 3.81878,-8.52948 8.52948,-8.52948 4.7107,0 8.52947,3.81878 8.52947,8.52948 z"
             transform="translate(-1.2374369,-205.18882)" />
        </g>
      </g>
    </g>
    <g
       id="g3934"
       transform="matrix(0.98916724,0,0,0.98916724,-30.268987,-529.03325)">
      <rect
         y="221.65225"
         x="772.73492"
         height="127.48439"
         width="160.46881"
         id="rect3858"
         style="fill:#7383bf;fill-opacity:1;stroke:#424a60;stroke-width:6.17390965999999960;stroke-linecap:round;stroke-miterlimit:4;stroke-opacity:1;stroke-dasharray:none" />
      <rect
         y="221.43214"
         x="772.57721"
         height="31.841434"
         width="27.625"
         id="rect3860"
         style="fill:#556080;fill-opacity:1;stroke:#424a60;stroke-width:5.82788086;stroke-linecap:round;stroke-miterlimit:4;stroke-opacity:1;stroke-dasharray:none" />
      <rect
         y="252.35278"
         x="772.54572"
         height="31.841434"
         width="27.625"
         id="rect3860-4"
         style="fill:#556080;fill-opacity:1;stroke:#424a60;stroke-width:5.82788086;stroke-linecap:round;stroke-miterlimit:4;stroke-opacity:1;stroke-dasharray:none" />
      <rect
         y="284.19513"
         x="772.53656"
         height="31.841434"
         width="27.625"
         id="rect3860-0"
         style="fill:#556080;fill-opacity:1;stroke:#424a60;stroke-width:5.82788086;stroke-linecap:round;stroke-miterlimit:4;stroke-opacity:1;stroke-dasharray:none" />
      <rect
         y="316.84311"
         x="772.5285"
         height="31.841434"
         width="27.625"
         id="rect3860-0-9"
         style="fill:#556080;fill-opacity:1;stroke:#424a60;stroke-width:5.82788086;stroke-linecap:round;stroke-miterlimit:4;stroke-opacity:1;stroke-dasharray:none" />
      <rect
         y="221.48599"
         x="905.7431"
         height="31.841434"
         width="27.625"
         id="rect3860-48"
         style="fill:#556080;fill-opacity:1;stroke:#424a60;stroke-width:5.82788086;stroke-linecap:round;stroke-miterlimit:4;stroke-opacity:1;stroke-dasharray:none" />
      <rect
         y="252.40663"
         x="905.71161"
         height="31.841434"
         width="27.625"
         id="rect3860-4-8"
         style="fill:#556080;fill-opacity:1;stroke:#424a60;stroke-width:5.82788086;stroke-linecap:round;stroke-miterlimit:4;stroke-opacity:1;stroke-dasharray:none" />
      <rect
         y="284.24896"
         x="905.70245"
         height="31.841434"
         width="27.625"
         id="rect3860-0-2"
         style="fill:#556080;fill-opacity:1;stroke:#424a60;stroke-width:5.82788086;stroke-linecap:round;stroke-miterlimit:4;stroke-opacity:1;stroke-dasharray:none" />
      <rect
         y="316.89694"
         x="905.6944"
         height="31.841434"
         width="27.625"
         id="rect3860-0-9-4"
         style="fill:#556080;fill-opacity:1;stroke:#424a60;stroke-width:5.82788086;stroke-linecap:round;stroke-miterlimit:4;stroke-opacity:1;stroke-dasharray:none" />
      <path
         inkscape:connector-curvature="0"
         id="path3932"
         d="m 841.45707,264.53195 0,40.83541 31.55464,-20.41771 z"
         style="fill:#ffffff;fill-opacity:1;stroke:none" />
    </g>
  </g>
</svg>
