<?xml version="1.0" encoding="UTF-8" standalone="no"?>
<!-- Created with Inkscape (http://www.inkscape.org/) -->

<svg
   xmlns:dc="http://purl.org/dc/elements/1.1/"
   xmlns:cc="http://creativecommons.org/ns#"
   xmlns:rdf="http://www.w3.org/1999/02/22-rdf-syntax-ns#"
   xmlns:svg="http://www.w3.org/2000/svg"
   xmlns="http://www.w3.org/2000/svg"
   xmlns:sodipodi="http://sodipodi.sourceforge.net/DTD/sodipodi-0.dtd"
   xmlns:inkscape="http://www.inkscape.org/namespaces/inkscape"
   id="svg2"
   version="1.1"
   inkscape:version="0.48.5 r10040"
   width="663.57898"
   height="874.71417"
   sodipodi:docname="reino_logo.svg"
   inkscape:export-filename="C:\Users\Mariolinha\Pictures\bitmap.png"
   inkscape:export-xdpi="90"
   inkscape:export-ydpi="90">
  <metadata
     id="metadata8">
    <rdf:RDF>
      <cc:Work
         rdf:about="">
        <dc:format>image/svg+xml</dc:format>
        <dc:type
           rdf:resource="http://purl.org/dc/dcmitype/StillImage" />
        <dc:title />
      </cc:Work>
    </rdf:RDF>
  </metadata>
  <defs
     id="defs6" />
  <sodipodi:namedview
     pagecolor="#ffffff"
     bordercolor="#666666"
     borderopacity="1"
     objecttolerance="10"
     gridtolerance="10"
     guidetolerance="10"
     inkscape:pageopacity="0"
     inkscape:pageshadow="2"
     inkscape:window-width="1704"
     inkscape:window-height="1361"
     id="namedview4"
     showgrid="false"
     fit-margin-top="0"
     fit-margin-left="0"
     fit-margin-right="0"
     fit-margin-bottom="0"
     inkscape:zoom="0.64"
     inkscape:cx="50.552992"
     inkscape:cy="254.38463"
     inkscape:window-x="0"
     inkscape:window-y="0"
     inkscape:window-maximized="0"
     inkscape:current-layer="layer3" />
  <g
     inkscape:groupmode="layer"
     id="layer3"
     inkscape:label="Logo"
     transform="translate(-849.10284,-738.06646)"
     style="display:inline"
     sodipodi:insensitive="true">
    <path
       style="fill:#ffffff;fill-opacity:0.54807691;stroke:none"
       d="m 1220.257,1611.9128 c -0.074,-0.5238 1.1712,-3.5109 2.7663,-6.6379 2.4177,-4.7403 3.3224,-8.7478 5.4392,-24.0965 1.3966,-10.1259 2.8204,-22.8896 3.1641,-28.3638 0.5869,-9.3447 0.487,-10.3451 -1.6336,-16.368 -1.2423,-3.5281 -2.6857,-6.4884 -3.2075,-6.5783 -0.5219,-0.09 -1.7808,2.1741 -2.7977,5.0313 -1.3346,3.7499 -3.258,6.5556 -6.9154,10.088 -7.2076,6.961 -19.2991,16.691 -20.4572,16.4617 -0.5861,-0.1162 -0.407,-2.3221 0.4457,-5.4867 3.445,-12.7864 9.9761,-33.2317 13.8206,-43.2649 3.8424,-10.028 4.1357,-11.4528 3.6898,-17.9238 -0.2763,-4.0092 -1.2252,-8.9943 -2.2094,-11.6022 -2.811,-7.452 -13.5575,-29.7355 -14.433,-29.9281 -0.4446,-0.098 -0.6657,-0.7958 -0.4912,-1.5512 0.1742,-0.7554 -0.1594,-1.3066 -0.7418,-1.2247 -0.5823,0.082 -0.884,-0.2486 -0.6707,-0.734 0.4085,-0.9299 -8.2281,-18.4323 -14.7139,-29.8186 -3.4862,-6.1201 -6.7186,-9.3126 -11.4198,-11.2785 -1.6588,-0.6939 -30.8924,13.6704 -31.2853,15.3722 -0.169,0.7326 -0.7079,1.3883 -1.1971,1.457 -0.4894,0.069 -3.6052,3.2028 -6.9238,6.9648 -6.88,7.7991 -13.4803,12.6748 -37.7376,27.878 l -17.2049,10.783 -10.2281,1.5388 c -17.15,2.5803 -16.0259,2.6213 -20.2615,-0.7399 l -3.8361,-3.0441 -8.3123,2.8711 c -10.1131,3.493 -10.6443,3.5866 -13.0514,2.2971 -1.6974,-0.9093 -1.8136,-1.3059 -1.0185,-3.4722 0.4938,-1.3449 0.5813,-2.8265 0.1945,-3.2921 -0.3869,-0.4657 -5.1714,-3.0337 -10.6323,-5.7067 -5.4608,-2.673 -9.97455,-5.1849 -10.03035,-5.582 -0.0558,-0.3972 0.82669,-1.5356 1.96115,-2.5297 1.5499,-1.3581 3.5507,-1.9208 8.0475,-2.2631 l 5.9849,-0.4557 -1.0262,-2.6794 c -2.0671,-5.3967 -1.8735,-6.1177 2.5112,-9.349 4.2921,-3.163 29.8619,-35.1222 29.5565,-36.9419 -0.091,-0.5389 -0.6853,-0.9805 -1.3217,-0.9811 -0.6366,-5e-4 -4.0651,0.061 -7.6192,0.1359 -4.5841,0.097 -7.5861,-0.4198 -10.332,-1.7796 -2.1286,-1.0543 -4.3279,-1.8525 -4.8872,-1.7739 -0.5592,0.079 -1.6264,-0.5843 -2.3717,-1.4728 -1.7229,-2.0545 -0.5649,-3.7333 5.4597,-7.9141 2.3845,-1.6548 4.5715,-3.508 4.8599,-4.1183 0.2881,-0.6104 0.5751,-0.7955 0.6364,-0.4122 0.3611,2.2462 8.5833,-5.9587 16.8787,-16.843 7.8803,-10.3397 9.9921,-13.8242 11.8297,-19.5193 3.1875,-9.879 3.3234,-14.9376 0.7698,-28.6612 -1.2015,-6.4569 -3.0272,-16.5297 -4.0571,-22.3843 -1.6099,-9.1502 -2.1398,-10.7889 -3.7747,-11.673 -7.0763,-3.8263 -131.66794,-57.642 -131.88223,-56.9649 -0.0843,0.2666 -0.93439,-0.1042 -1.88896,-0.8234 -2.21225,-1.6673 -13.02776,-6.3395 -14.27086,-6.1649 -0.51722,0.073 -1.1224,-0.1748 -1.34487,-0.5498 -0.58876,-0.993 -21.74472,-9.7169 -22.10942,-9.1172 -0.16987,0.2782 -0.66315,0.093 -1.09864,-0.4206 -0.43496,-0.5097 -3.57769,-1.8703 -6.98389,-3.0235 -8.96742,-3.0362 -10.97962,-4.81 -11.76033,-10.3677 -0.57493,-4.0929 -0.92331,-4.657 -3.41722,-5.5327 -3.11147,-1.0926 -5.84416,-3.8549 -7.25647,-7.3356 -0.72907,-1.7967 -0.39125,-3.4461 1.4862,-7.2473 1.33647,-2.7065 2.67351,-4.956 2.9711,-4.9989 0.29769,-0.043 6.6708,1.7708 14.16255,4.03 l 13.62141,4.1079 7.26648,-9.6625 c 4.94478,-6.5754 8.23454,-10.0792 10.29621,-10.9665 2.81415,-1.211 3.01089,-1.596 2.76262,-5.4059 -0.34151,-5.2386 4.32642,-15.1376 11.93093,-25.3021 3.00097,-4.0111 15.06299,-16.955 26.80435,-28.7641 11.74151,-11.8091 21.77974,-21.9484 22.30737,-22.5317 0.52763,-0.5834 2.53921,-3.9904 4.46953,-7.5718 1.93059,-3.581 7.55358,-12.451 12.49551,-19.711 4.94205,-7.2598 10.02491,-15.3297 11.29525,-17.933 1.27042,-2.6032 3.41016,-5.7753 4.75519,-7.0493 l 2.44515,-2.3164 1.19168,6.5415 1.19156,6.5414 4.0628,-6.9989 c 4.7374,-8.1611 7.4366,-11.6702 9.1632,-11.9128 1.2735,-0.1789 4.8273,-3.4013 10.7742,-9.7696 l 3.4008,-3.6417 -1.3285,-9.45693 c -1.1951,-8.5068 -1.7124,-10.1164 -5.1477,-16.0186 -3.4273,-5.888 -4.0384,-7.7833 -5.9529,-18.4642 l -2.1337,-11.9026 -6.4411,-5.4097 c -6.6244,-5.5636 -18.79582,-16.5671 -24.65933,-22.2932 -4.90216,-4.7872 -8.20426,-9.9228 -8.71417,-13.5524 -0.42772,-3.0451 -0.61233,-3.1914 -3.51565,-2.7835 -2.70566,0.38 -3.17733,0.1077 -4.03032,-2.3271 -0.53123,-1.5166 -1.21242,-4.5115 -1.51355,-6.6555 -0.96167,-6.8454 -2.71103,-8.2396 -5.18104,-4.1294 -1.10705,1.8413 -2.48582,2.4622 -7.83121,3.5235 l -6.48795,1.2883 2.65613,-5.0597 c 1.46088,-2.7828 2.68637,-6.4777 2.7233,-8.211 0.073,-3.4205 -3.07878,-13.1938 -4.20381,-13.0357 -0.38065,0.053 -0.82103,-0.4055 -0.97838,-1.0199 -3.05991,-11.9448 -4.68895,-18.8695 -5.21779,-22.1817 -0.7798,-4.8823 -5.0432,-18.28331 -6.44064,-20.24431 -0.54642,-0.767 -1.91789,-3.1829 -3.04776,-5.3687 -1.12973,-2.1858 -4.25451,-6.4313 -6.94408,-9.4347 -10.56808,-11.8011 -15.30182,-20.998 -18.07596,-35.119 -1.74365,-8.875 -1.76696,-10.3979 -0.36418,-23.8286 0.82412,-7.8913 1.83071,-14.0643 2.23707,-13.7179 0.99554,0.849 27.47595,46.3288 28.40076,48.7783 0.40203,1.0648 0.44354,2.1005 0.0921,2.3016 -0.35141,0.2011 -0.43184,3.4957 -0.17886,7.3213 l 0.46001,6.9557 17.35067,17.005 c 9.54293,9.3528 19.2731,18.72431 21.62262,20.82541 l 4.27184,3.8202 12.15519,-17.56501 c 13.30419,-19.2255 22.89309,-30.4911 35.48559,-41.6907 l 8.2133,-7.3047 6.2879,-0.2483 c 8.7823,-0.3469 8.9251,-0.2286 7.4958,6.2099 -2.6251,11.825 -8.4163,19.1712 -26.8141,34.0149 -5.3257,4.2967 -11.1511,9.8609 -12.9455,12.3646 -3.7822,5.2779 -11.91998,20.58771 -11.71366,22.03751 0.0771,0.5421 2.41566,2.1095 5.19686,3.4824 6.9079,3.4114 9.9461,6.2136 18.7828,17.3246 l 7.5959,9.5505 4.4367,-0.6233 c 2.4401,-0.3428 7.9864,-1.6102 12.3243,-2.8198 6.6998,-1.8681 7.9364,-2.4948 8.2135,-4.1628 0.4772,-2.8725 6.4747,-17.9163 9.1626,-22.9831 1.6564,-3.1224 2.6328,-4.1245 3.4324,-3.522 1.9971,1.5052 3.018,13.5689 1.6519,19.5213 -1.3877,6.0466 -9.1207,22.6348 -13.5851,29.1417 -3.3895,4.9406 -3.9464,7.2732 -2.4037,10.0715 1.7034,3.0898 15.5918,14.7578 26.6451,22.385 7.1903,4.9618 10.4912,7.8833 12.333,10.9161 2.9548,4.8645 2.8041,6.3023 -0.9891,9.4531 -2.3997,1.9932 -2.6818,2.6892 -1.8978,4.6831 1.2668,3.2222 3.9458,6.9861 6.8342,9.6016 1.3333,1.2071 3.2373,4.481 4.2313,7.2753 0.9941,2.7942 2.1077,5.6631 2.4749,6.3754 0.3671,0.7123 0.9925,2.4764 1.3896,3.9205 0.796,2.8948 3.581,6.4913 4.8846,6.3083 0.4581,-0.064 3.7165,1.5126 7.241,3.5045 8.2181,4.6442 11.8468,5.8619 25.2565,8.47543 13.962,2.7211 16.7644,3.7018 31.8931,11.1601 20.0775,9.8982 26.2611,13.6351 32.8671,19.8626 13.6719,12.8881 28.6972,32.2855 34.3776,44.3807 4.6331,9.865 6.3839,29.7948 3.8677,44.0311 -2.2708,12.8484 -13.6549,43.5699 -17.8198,48.0887 -3.7329,4.0503 -18.5063,9.2903 -31.7302,11.2547 -6.9063,1.0257 -10.9786,2.0504 -12.5342,3.1536 -3.8657,2.7411 -6.736,7.7397 -7.675,13.3652 -1.0109,6.057 -4.1773,13.0126 -7.0824,15.5585 -1.0748,0.942 -3.4887,2.0757 -5.3643,2.5191 -4.3898,1.0383 -6.6086,4.4372 -7.5151,11.5124 -1.12,8.7425 -2.1998,11.2888 -6.3735,15.0291 -5.3514,4.7958 -5.9241,5.9939 -5.2297,10.9368 0.5296,3.7704 -0.356,8.58 -3.2485,17.641 -0.3627,1.1362 -0.2353,3.2071 0.2828,4.6017 0.7296,1.9635 0.388,3.838 -1.5133,8.3043 -1.3504,3.1726 -2.4036,6.1378 -2.3402,6.5892 0.063,0.4514 2.9369,3.1116 6.3855,5.9114 6.5359,5.3062 7.0713,6.3648 7.7377,15.3013 0.2552,3.4224 3.4337,7.9548 7.9017,11.267 3.5143,2.6051 88.2572,49.0383 256.4194,140.5001 39.1451,21.2906 73.3058,40.2518 75.9127,42.1361 5.9386,4.2924 12.5144,10.9616 17.5794,17.8292 6.8011,9.2213 7.0232,8.4949 -3.9113,12.7897 -5.2395,2.058 -10.4082,3.8656 -11.4862,4.0171 -1.4215,0.1996 -3.3494,-1.3025 -7.0205,-5.4705 -7.4455,-8.4529 -8.0461,-8.8224 -240.6293,-147.9883 -25.1278,-15.0352 -41.6879,-24.3907 -42.8803,-24.2247 -1.0683,0.1492 -2.7704,1.158 -3.782,2.2426 l -1.8396,1.9723 3.0521,13.8283 c 1.6786,7.6055 3.2214,15.2284 3.4283,16.9396 0.8462,6.9973 1.6524,7.8579 7.6703,8.1874 4.5554,0.2494 5.8633,0.7325 7.4832,2.7641 1.0796,1.3541 2.7487,2.595 3.709,2.7576 2.2785,0.3859 3.5018,2.7357 5.9736,11.4749 1.4446,5.1075 1.8271,7.7546 1.3198,9.1361 -1.1927,3.2489 -0.6687,15.0645 0.8463,19.0822 0.7584,2.0115 3.9779,7.1678 7.1543,11.4582 l 5.7753,7.801 2.3609,23.7597 c 5.4114,54.4601 6.3688,71.5442 4.6507,82.9817 -0.9889,6.5828 -5.4689,15.3905 -11.9423,23.4783 -7.5898,9.4828 -17.1085,16.6276 -17.5896,13.203 z m -153.4422,-340.3364 c 6.0062,-6.3019 8.0697,-17.4404 4.7796,-25.7987 -1.6128,-4.0974 -1.59,-4.5004 0.562,-9.8864 2.079,-5.2034 2.1702,-6.355 1.2438,-15.7127 l -0.9995,-10.0977 4.9847,-8.8132 4.9847,-8.8133 -1.4062,-13.9096 c -0.7735,-7.6504 -1.1556,-16.3461 -0.8491,-19.324 0.5434,-5.2803 0.5082,-5.4172 -1.4261,-5.5489 -4.19,-0.285 -28.0836,1.4575 -28.8631,2.105 -0.4512,0.3747 -1.1352,0.3022 -1.5203,-0.1613 -1.6817,-2.0248 -10.1353,0.5822 -25.1604,7.759 -40.53221,19.3602 -36.07239,16.7951 -42.38331,24.3773 -5.88075,7.0655 -14.4386,13.8178 -24.40837,19.2586 -4.95723,2.7052 -6.61884,3.1737 -12.05885,3.3986 -6.54687,0.2709 -7.57106,1.0383 -4.27611,3.2027 0.97929,0.6488 23.04704,11.6518 49.03399,24.4596 25.98695,12.8078 53.29605,26.2947 60.68685,29.9709 7.3908,3.6762 13.5855,6.6791 13.766,6.6732 0.1805,-0.01 1.6698,-1.4186 3.3097,-3.1391 l 0,0 z"
       id="path3823"
       inkscape:connector-curvature="0" />
  </g>
</svg>
