<?xml version="1.0" encoding="UTF-8" standalone="no"?>
<!-- Created with Inkscape (http://www.inkscape.org/) -->
<svg id="svg4008" xmlns:rdf="http://www.w3.org/1999/02/22-rdf-syntax-ns#" xmlns="http://www.w3.org/2000/svg" height="133.04" width="133.04" version="1.1" xmlns:cc="http://creativecommons.org/ns#" xmlns:dc="http://purl.org/dc/elements/1.1/">
 <metadata id="metadata4013">
  <rdf:RDF>
   <cc:Work rdf:about="">
    <dc:format>image/svg+xml</dc:format>
    <dc:type rdf:resource="http://purl.org/dc/dcmitype/StillImage"/>
    <dc:title/>
   </cc:Work>
  </rdf:RDF>
 </metadata>
 <g id="layer1" transform="translate(-165.82 -104.99)">
  <g id="g3766" transform="translate(495.55 -120.41)">
   <path id="path2986" d="m-176.79 466.65c0 31.165-25.264 56.429-56.429 56.429s-56.429-25.264-56.429-56.429 25.264-56.429 56.429-56.429 56.429 25.264 56.429 56.429z" fill-rule="evenodd" transform="matrix(1.1788 0 0 1.1788 11.698 -258.17)" fill="#556080"/>
   <path id="path3760" d="m-305.89 401.29c0 15.089-12.232 27.321-27.321 27.321s-27.321-12.232-27.321-27.321 12.232-27.321 27.321-27.321 27.321 12.232 27.321 27.321z" transform="matrix(1.5817 0 0 1.5817 264.9 -328.88)" fill="#fbd971"/>
   <path id="path3762" d="m-326.22 286.98c-3.4347-21.639 7.4145-27.207 18.12-31.757 4.6281-1.4736 16.889-3.0277 30.936-0.3788 9.6787 2.8115 18.535 1.9215 27.274 0.50507 11.482-1.8073 21.892-1.2553 31.694 0.63135 8.0714 3.2785 15.947 6.9689 18.814 21.213l-0.50508 11.869c-1.5118 4.9277-4.4228 8.541-8.7126 10.859h-105.31c-6.3422-2.4149-11.483-5.8493-12.311-12.943z" fill="#464f5d"/>
   <rect id="rect3756" ry="6.4286" height="12.857" width="94.554" y="272.39" x="-310.51" fill="#e16080"/>
   <rect id="rect3764" ry="3.4821" height="6.9643" width="38.597" y="320.65" x="-282.49" fill="#f29c1f"/>
  </g>
 </g>
</svg>
